<?xml version="1.0" encoding="UTF-8" standalone="no"?>
<svg width="128px" height="52px" viewBox="0 0 513 210" version="1.1" xmlns="http://www.w3.org/2000/svg" xmlns:xlink="http://www.w3.org/1999/xlink">
    <!-- Generator: Sketch 39.1 (31720) - http://www.bohemiancoding.com/sketch -->
    <title>White Logo - No Text</title>
    <desc>Created with Sketch.</desc>
    <defs></defs>
    <g id="Page-1" stroke="none" stroke-width="1" fill="none" fill-rule="evenodd">
        <g id="White-Logo---No-Text">
            <g id="Fooji-White-+-Text" transform="translate(33.000000, 27.000000)">
                <path d="M16.8977273,68.6136364 L0.0227272727,68.6136364 L0.0227272727,48.1590909 L16.8977273,48.1590909 L16.8977273,33.5 C16.8977273,28.9545227 17.2954506,24.6647929 18.0909091,20.6306818 C18.8863676,16.5965707 20.4204432,13.0454699 22.6931818,9.97727273 C24.9659205,6.90907557 28.2329332,4.49432699 32.4943182,2.73295455 C36.7557031,0.971582102 42.3522381,0.0909090909 49.2840909,0.0909090909 C51.8977403,0.0909090909 54.454533,0.204544318 56.9545455,0.431818182 C59.454558,0.659092045 61.8977153,1.05681534 64.2840909,1.625 L63.0909091,23.2727273 C61.613629,22.7045426 60.2500062,22.2784105 59,21.9943182 C57.7499937,21.7102259 56.3295534,21.5681818 54.7386364,21.5681818 C50.6477068,21.5681818 47.5795557,22.4488548 45.5340909,24.2102273 C43.4886261,25.9715997 42.4659091,29.5795182 42.4659091,35.0340909 L42.4659091,48.1590909 L61.3863636,48.1590909 L61.3863636,68.6136364 L42.4659091,68.6136364 L42.4659091,131 L16.8977273,131 L16.8977273,68.6136364 Z" id="f" fill="#FFFFFF"></path>
                <path d="M395.306818,137.136364 C395.306818,142.477299 394.79546,147.278388 393.772727,151.539773 C392.749995,155.801158 391.045466,159.437485 388.659091,162.448864 C386.272715,165.460242 383.119338,167.789764 379.198864,169.4375 C375.278389,171.085236 370.420484,171.909091 364.625,171.909091 C362.693172,171.909091 360.704556,171.823864 358.659091,171.653409 C356.613626,171.482954 354.62501,171.113639 352.693182,170.545455 L354.056818,147.875 C356.102283,148.897732 358.31817,149.409091 360.704545,149.409091 C362.863647,149.409091 364.568176,148.840915 365.818182,147.704545 C367.068188,146.568176 367.97727,145.147736 368.545455,143.443182 C369.113639,141.738628 369.454545,139.920464 369.568182,137.988636 C369.681819,136.056809 369.738636,134.295462 369.738636,132.704545 L369.738636,48.1590909 L395.306818,48.1590909 L395.306818,137.136364 Z M367.693182,22.0795455 C367.693182,17.9886159 369.142031,14.4943327 372.039773,11.5965909 C374.937514,8.69884915 378.431798,7.25 382.522727,7.25 C386.613657,7.25 390.10794,8.69884915 393.005682,11.5965909 C395.903424,14.4943327 397.352273,17.9886159 397.352273,22.0795455 C397.352273,26.170475 395.903424,29.6647582 393.005682,32.5625 C390.10794,35.4602418 386.613657,36.9090909 382.522727,36.9090909 C378.431798,36.9090909 374.937514,35.4602418 372.039773,32.5625 C369.142031,29.6647582 367.693182,26.170475 367.693182,22.0795455 L367.693182,22.0795455 Z M414.056818,48.1590909 L439.625,48.1590909 L439.625,131 L414.056818,131 L414.056818,48.1590909 Z M412.011364,22.0795455 C412.011364,17.9886159 413.460213,14.4943327 416.357955,11.5965909 C419.255696,8.69884915 422.74998,7.25 426.840909,7.25 C430.931839,7.25 434.426122,8.69884915 437.323864,11.5965909 C440.221605,14.4943327 441.670455,17.9886159 441.670455,22.0795455 C441.670455,26.170475 440.221605,29.6647582 437.323864,32.5625 C434.426122,35.4602418 430.931839,36.9090909 426.840909,36.9090909 C422.74998,36.9090909 419.255696,35.4602418 416.357955,32.5625 C413.460213,29.6647582 412.011364,26.170475 412.011364,22.0795455 L412.011364,22.0795455 Z" id="ji" fill="#FFFFFF"></path>
                <g id="1f60f" transform="translate(70.590909, 7.082009)">
                    <g id="Group">
                        <ellipse id="Oval" fill="#FFD766" cx="68.1818182" cy="68.2696436" rx="68.1818182" ry="68.2696436"></ellipse>
                        <path d="M48.4681818,99.2572349 C53.5340909,100.800129 58.2022727,101.350837 62.85,101.337183 C67.475,101.332632 71.9863636,100.71593 76.4295455,99.6531988 C80.85,98.5631602 85.1522727,97.0475741 89.275,94.9425934 C93.4022727,92.8216831 97.3090909,90.2092314 101.122727,86.5294976 C100.4,91.8681838 97.0977273,96.7244311 92.9772727,100.319966 C88.8227273,103.947359 83.7136364,106.443753 78.3727273,107.734049 C73.0272727,109.015243 67.3545455,109.129025 62.0022727,107.800043 C56.6977273,106.482439 51.5545455,103.674281 48.4681818,99.2595105" id="Shape" fill="#000000"></path>
                        <g transform="translate(15.909091, 29.014599)" id="Shape" fill="#000000">
                            <path d="M100.454545,13.4263632 C93.1045455,7.20927437 83.3568182,4.59454702 73.8840909,6.2967368 C72.5659091,6.55388579 71.4068182,1.69991413 73.0045455,1.39042508 C83.9386364,-0.573465006 95.1818182,2.43950193 103.668182,9.61691713 C104.897727,10.6841992 101.465909,14.3070416 100.454545,13.4263632"></path>
                            <path d="M30.6522727,5.95538858 C21.1795455,4.2531988 11.4363636,6.86565049 4.08181818,13.085015 C3.075,13.9702447 -0.361363636,10.342851 0.872727273,9.27556891 C9.35454545,2.10270502 20.6,-0.917088879 31.5363636,1.04907686 C33.1340909,1.35629025 31.9704545,6.21253757 30.6522727,5.95538858"></path>
                        </g>
                        <g transform="translate(18.181818, 52.340060)" id="Shape" fill="#000000">
                            <path d="M97.6613636,4.77887505 C90.8909091,-3.08806355 69.3636364,-0.31859167 62.9795455,10.4270502 C62.5159091,11.2280807 63.7386364,12.3704594 65.2295455,13.2784457 C69.55,10.2472735 74.6090909,8.55418635 79.7545455,8.19235723 C79.7772727,13.8723916 84.2568182,18.4760412 89.7954545,18.4760412 C97.8068182,18.4737656 101.629545,9.39162731 97.6613636,4.7765994"></path>
                            <path d="M35.5386364,4.77887505 C28.7681818,-3.08578789 7.24318182,-0.320867325 0.856818182,10.4293259 C0.393181818,11.2280807 1.61590909,12.3704594 3.10909091,13.2784457 C7.42954545,10.2495492 12.4863636,8.55418635 17.6340909,8.19235723 C17.6545455,13.8701159 22.1363636,18.4760412 27.6727273,18.4760412 C35.6840909,18.4737656 39.5090909,9.39162731 35.5386364,4.7765994"></path>
                        </g>
                    </g>
                </g>
                <g id="1f60d-(1)" transform="translate(217.181818, 10.495492)">
                    <g id="Group">
                        <ellipse id="Oval" fill="#FFD766" cx="66.4772727" cy="66.5607003" rx="65.9824047" ry="66.0673971"></ellipse>
                        <path d="M66.4816716,109.504508 C42.9721408,109.504508 31.2910557,92.9017715 31.2910557,78.6730564 L66.4816716,78.6730564 L101.667889,78.6730564 C101.667889,92.9017715 89.9802053,109.504508 66.4816716,109.504508 Z" id="Shape" fill="#000000"></path>
                        <polygon id="Shape" fill="#FFFFFF" points="33.3101173 78.6730564 99.6444282 78.6730564 99.6444282 91.0056372 33.3101173 91.0056372"></polygon>
                        <path d="M66.4772727,111.708957 C42.1957478,111.708957 29.0872434,94.6877935 29.0872434,78.6752587 L29.0872434,76.4730121 L103.862903,76.4730121 L103.862903,78.6752587 C103.862903,94.6899957 90.7609971,111.708957 66.4772727,111.708957 M33.585044,80.8775052 C34.7353372,94.0689622 46.181085,107.304464 66.4772727,107.304464 C86.771261,107.304464 98.2192082,94.0689622 99.3695015,80.8775052 L33.585044,80.8775052" id="Shape" fill="#000000"></path>
                        <g transform="translate(0.000000, 0.495505)" id="Shape" fill="#E2144F">
                            <path d="M122.309384,12.4801313 C116.472141,10.8768958 111.131965,13.173839 105.950147,18.4328038 C103.046921,10.4386487 98.6085044,4.50139199 91.6099707,1.45788723 C84.4420821,-1.67811189 77.4743402,0.431640327 73.079912,5.99671741 C68.5139296,11.7842214 66.6972141,20.7011177 71.5843109,32.3664178 C76.1634897,43.2873586 96.6840176,65.4221388 97.2778592,66.0673971 C98.0762463,65.5696893 120.930352,51.2683001 126.527859,44.2453358 C132.004399,37.3743265 133.148094,30.5319464 132.125367,24.7092065 C131.107038,18.8622419 127.658358,13.9402208 122.309384,12.4801313 Z"></path>
                            <path d="M59.8790323,5.99671741 C55.4890029,0.433842574 48.5168622,-1.67590964 41.3467742,1.45568498 C34.3438416,4.49918974 29.9076246,10.4364465 27,18.4306015 C21.8203812,13.173839 16.4802053,10.8768958 10.6407625,12.4779291 C5.29618768,13.9380185 1.8431085,18.8600396 0.824780059,24.7070043 C-0.184750733,30.5297442 0.950146628,37.3721243 6.42228739,44.2453358 C12.0241935,51.2683001 34.8826979,65.5696893 35.681085,66.0673971 C36.2705279,65.4265433 56.7954545,43.2873586 61.3746334,32.3664178 C66.2617302,20.7011177 64.4450147,11.7842214 59.8790323,5.99671741"></path>
                        </g>
                    </g>
                </g>
            </g>
        </g>
    </g>
</svg>
